<svg width="231" height="45" viewBox="0 0 231 45" fill="none" xmlns="http://www.w3.org/2000/svg">
<path d="M12.5147 0C15.8762 0 18.7517 0.568337 21.1413 1.70501C23.5308 2.84168 25.3533 4.46549 26.6088 6.57646C27.9048 8.68742 28.5529 11.2449 28.5529 14.249C28.5529 15.9946 28.2694 17.7402 27.7023 19.4858C27.1758 21.2314 26.3253 22.8146 25.1508 24.2355C24.0168 25.6563 22.4778 26.793 20.5338 27.6455C18.6302 28.498 16.2812 28.9242 13.4867 28.9242H7.10784V44.3302H0V0H12.5147ZM13.4867 22.1042C15.0257 22.1042 16.3217 21.8403 17.3747 21.3126C18.4277 20.7848 19.2377 20.115 19.8047 19.3031C20.4123 18.4912 20.8375 17.6387 21.0805 16.7456C21.364 15.8525 21.5058 15.0609 21.5058 14.3708C21.5058 13.6806 21.3843 12.9093 21.1413 12.0568C20.8983 11.1637 20.4933 10.3315 19.9262 9.56022C19.3592 8.74831 18.5695 8.09878 17.557 7.61164C16.5445 7.0839 15.2484 6.82003 13.6689 6.82003H7.10784V22.1042H13.4867Z" fill="#ED5C01"/>
<path d="M48.6205 45C45.583 45 42.991 44.4114 40.8444 43.2341C38.6979 42.0568 37.0576 40.433 35.9236 38.3626C34.7896 36.2923 34.2226 33.9175 34.2226 31.2382C34.2226 28.6807 34.8706 26.3667 36.1666 24.2963C37.4626 22.1854 39.2042 20.521 41.3912 19.3031C43.6187 18.0447 46.069 17.4154 48.742 17.4154C52.2656 17.4154 55.1614 18.4506 57.4294 20.521C59.7379 22.5507 61.2769 25.433 62.0465 29.1678L41.3304 36.1705L39.7509 32.3342L55.9714 26.5494L54.5134 27.341C54.1084 26.1231 53.3996 25.0677 52.3871 24.1746C51.3746 23.2409 49.9773 22.774 48.1953 22.774C46.7778 22.774 45.5223 23.1191 44.4287 23.8092C43.3352 24.4993 42.4645 25.4533 41.8165 26.6712C41.2089 27.8484 40.9052 29.249 40.9052 30.8728C40.9052 32.5778 41.2494 34.0595 41.938 35.318C42.6265 36.5359 43.558 37.4898 44.7325 38.18C45.907 38.8295 47.2435 39.1543 48.742 39.1543C49.7951 39.1543 50.7873 38.9716 51.7188 38.6062C52.6908 38.2409 53.6224 37.7537 54.5134 37.1448L57.6116 42.1989C56.2751 43.0514 54.7969 43.7415 53.1768 44.2693C51.5973 44.7564 50.0786 45 48.6205 45Z" fill="#ED5C01"/>
<path d="M71.8397 7.24628H78.6437V18.5724H85.3263V23.931H78.6437V44.3302H71.8397V23.931H67.4049V18.5724H71.8397V7.24628Z" fill="#ED5C01"/>
<path d="M91.222 27.889H102.582V33.8566H91.222V27.889Z" fill="#ED5C01"/>
<path d="M113.134 0H139.986V6.82003H120.242V19.3031H137.434V26.0622H120.242V44.3302H113.134V0Z" fill="#ED5C01"/>
<path d="M147.703 18.5724H154.507V44.3302H147.703V18.5724ZM147.399 9.31664C147.399 8.26117 147.804 7.38836 148.614 6.69824C149.465 6.00812 150.376 5.66306 151.348 5.66306C152.32 5.66306 153.191 6.00812 153.96 6.69824C154.73 7.38836 155.115 8.26117 155.115 9.31664C155.115 10.3721 154.73 11.2449 153.96 11.935C153.191 12.5846 152.32 12.9093 151.348 12.9093C150.376 12.9093 149.465 12.5643 148.614 11.8742C147.804 11.184 147.399 10.3315 147.399 9.31664Z" fill="#ED5C01"/>
<path d="M170.583 18.5724L171.191 25.8796L170.948 24.8444C171.636 23.3018 172.608 21.9824 173.864 20.8863C175.16 19.7903 176.476 18.9378 177.813 18.3288C179.19 17.7199 180.303 17.4154 181.154 17.4154L180.85 24.2355C178.906 24.0731 177.205 24.4181 175.747 25.2706C174.33 26.1231 173.216 27.2801 172.406 28.7415C171.596 30.1624 171.191 31.6644 171.191 33.2476V44.3302H164.448V18.5724H170.583Z" fill="#ED5C01"/>
<path d="M196.442 44.8782C194.498 44.8782 192.635 44.5332 190.853 43.843C189.111 43.1529 187.653 42.138 186.479 40.7984L189.334 36.9621C190.468 38.0582 191.582 38.8701 192.675 39.3978C193.809 39.885 194.883 40.1286 195.895 40.1286C196.665 40.1286 197.353 40.0474 197.961 39.885C198.609 39.682 199.115 39.3775 199.479 38.9716C199.884 38.5656 200.087 38.0176 200.087 37.3275C200.087 36.5156 199.803 35.8863 199.236 35.4398C198.669 34.9526 197.94 34.567 197.049 34.2828C196.158 33.9581 195.207 33.6536 194.194 33.3694C192.007 32.6387 190.367 31.6238 189.273 30.3248C188.18 28.9851 187.633 27.4425 187.633 25.6969C187.633 24.3572 187.977 23.0785 188.666 21.8606C189.354 20.6022 190.407 19.567 191.825 18.7551C193.242 17.9432 195.024 17.5372 197.171 17.5372C199.115 17.5372 200.796 17.7605 202.213 18.207C203.671 18.6536 205.028 19.364 206.283 20.3383L203.671 24.479C202.942 23.7483 202.071 23.2003 201.059 22.8349C200.087 22.429 199.196 22.2057 198.386 22.1651C197.657 22.1245 197.009 22.226 196.442 22.4696C195.875 22.6725 195.409 22.977 195.045 23.3829C194.68 23.7889 194.498 24.2557 194.498 24.7835C194.498 25.5954 194.781 26.2449 195.348 26.7321C195.956 27.2192 196.725 27.6049 197.657 27.889C198.588 28.1732 199.52 28.4777 200.451 28.8024C201.707 29.1678 202.8 29.6752 203.732 30.3248C204.704 30.9743 205.473 31.7659 206.04 32.6996C206.607 33.5927 206.891 34.7091 206.891 36.0487C206.891 37.5913 206.506 39.0528 205.737 40.433C204.967 41.7727 203.813 42.8484 202.274 43.6603C200.735 44.4723 198.791 44.8782 196.442 44.8782Z" fill="#ED5C01"/>
<path d="M217.513 7.24628H224.317V18.5724H231V23.931H224.317V44.3302H217.513V23.931H213.079V18.5724H217.513V7.24628Z" fill="#ED5C01"/>
</svg>
